{
	"asset":{
		"generator":"Khronos glTF Blender I/O v3.6.28",
		"version":"2.0"
	},
	"scene":0,
	"scenes":[
		{
			"name":"Scene",
			"nodes":[
				0
			]
		}
	],
	"nodes":[
		{
			"mesh":0,
			"name":"obstacle",
			"rotation":[
				0.2499999850988388,
				-0.0669872835278511,
				-0.2499999850988388,
				0.9330127239227295
			]
		}
	],
	"materials":[
		{
			"doubleSided":true,
			"name":"\u6750\u8d28",
			"pbrMetallicRoughness":{
				"baseColorFactor":[
					0.800000011920929,
					0.800000011920929,
					0.800000011920929,
					1
				],
				"metallicFactor":0,
				"roughnessFactor":0.5
			}
		}
	],
	"meshes":[
		{
			"name":"obstacle",
			"primitives":[
				{
					"attributes":{
						"POSITION":0,
						"NORMAL":1,
						"TEXCOORD_0":2
					},
					"indices":3,
					"material":0
				}
			]
		}
	],
	"accessors":[
		{
			"bufferView":0,
			"componentType":5126,
			"count":3182,
			"max":[
				0.7623235583305359,
				1.0246360301971436,
				0.5346033573150635
			],
			"min":[
				-1.3032886981964111,
				-0.5166854858398438,
				-0.6284982562065125
			],
			"type":"VEC3"
		},
		{
			"bufferView":1,
			"componentType":5126,
			"count":3182,
			"type":"VEC3"
		},
		{
			"bufferView":2,
			"componentType":5126,
			"count":3182,
			"type":"VEC2"
		},
		{
			"bufferView":3,
			"componentType":5123,
			"count":7842,
			"type":"SCALAR"
		}
	],
	"bufferViews":[
		{
			"buffer":0,
			"byteLength":38184,
			"byteOffset":0,
			"target":34962
		},
		{
			"buffer":0,
			"byteLength":38184,
			"byteOffset":38184,
			"target":34962
		},
		{
			"buffer":0,
			"byteLength":25456,
			"byteOffset":76368,
			"target":34962
		},
		{
			"buffer":0,
			"byteLength":15684,
			"byteOffset":101824,
			"target":34963
		}
	],
	"buffers":[
		{
			"byteLength":117508,
			"uri":"data:application/octet-stream;base64,"
		}
	]
}
