{
	"asset":{
		"generator":"Khronos glTF Blender I/O v3.6.28",
		"version":"2.0"
	},
	"scene":0,
	"scenes":[
		{
			"name":"Scene",
			"nodes":[
				11
			]
		}
	],
	"nodes":[
		{
			"name":"root",
			"rotation":[
				0,
				0.70710688829422,
				0,
				0.7071066498756409
			],
			"scale":[
				1,
				0.9999999403953552,
				1
			],
			"translation":[
				0.24438215792179108,
				0.12715086340904236,
				-6.894752857533604e-08
			]
		},
		{
			"name":"neck3",
			"rotation":[
				0.2412731945514679,
				-9.700034109272337e-10,
				3.901584832988192e-09,
				0.9704572558403015
			],
			"scale":[
				1,
				0.9999999403953552,
				0.9999999403953552
			],
			"translation":[
				1.1102230246251565e-15,
				0.22671841084957123,
				-7.450590366886445e-09
			]
		},
		{
			"children":[
				1
			],
			"name":"neck2",
			"rotation":[
				0.043035876005887985,
				-4.474236259266462e-11,
				1.0386049797972419e-09,
				0.9990735650062561
			],
			"scale":[
				1,
				1.0000001192092896,
				1
			],
			"translation":[
				9.325873406851315e-15,
				0.2826329171657562,
				-4.65662175486159e-10
			]
		},
		{
			"children":[
				2
			],
			"name":"neck1",
			"rotation":[
				-0.44642576575279236,
				0.5483649373054504,
				0.4464258849620819,
				0.5483646988868713
			],
			"translation":[
				0.24438215792179108,
				0.12715086340904236,
				-6.894752857533604e-08
			]
		},
		{
			"name":"ear_r",
			"rotation":[
				0,
				0.7071069478988647,
				4.214683357872673e-08,
				0.7071065902709961
			],
			"scale":[
				0.9999999403953552,
				0.9999997615814209,
				0.9999998807907104
			],
			"translation":[
				-0.34905359148979187,
				0.43870797753334045,
				-0.09670465439558029
			]
		},
		{
			"name":"ear_l",
			"rotation":[
				0,
				0.7071067690849304,
				4.2146844236867764e-08,
				0.7071067690849304
			],
			"scale":[
				0.9999999403953552,
				0.9999997615814209,
				0.9999998807907104
			],
			"translation":[
				-0.3490535318851471,
				0.43870797753334045,
				0.09670484811067581
			]
		},
		{
			"name":"leg_f_r",
			"rotation":[
				0.10763246566057205,
				0.6988672614097595,
				-0.10763248801231384,
				0.6988669633865356
			],
			"scale":[
				1,
				1.0000001192092896,
				1
			],
			"translation":[
				-0.2817660868167877,
				0.014392942190170288,
				-0.0685640200972557
			]
		},
		{
			"name":"leg_b_r",
			"rotation":[
				-0.12234929203987122,
				0.696441650390625,
				0.12234926223754883,
				0.6964412331581116
			],
			"scale":[
				1,
				0.9999999403953552,
				1
			],
			"translation":[
				0.29319438338279724,
				-0.010420665144920349,
				-0.06700590252876282
			]
		},
		{
			"name":"leg_f_l",
			"rotation":[
				0.10763243585824966,
				0.6988672614097595,
				-0.10763236880302429,
				0.6988670229911804
			],
			"scale":[
				0.9999999403953552,
				0.9999998211860657,
				0.9999999403953552
			],
			"translation":[
				-0.28176602721214294,
				0.014392942190170288,
				0.06856416910886765
			]
		},
		{
			"name":"leg_b_l",
			"rotation":[
				-0.12234930694103241,
				0.6964414715766907,
				0.12234937399625778,
				0.6964414119720459
			],
			"scale":[
				1,
				0.9999998211860657,
				0.9999999403953552
			],
			"translation":[
				0.293194442987442,
				-0.010420665144920349,
				0.06700573861598969
			]
		},
		{
			"mesh":0,
			"name":"snowdog",
			"skin":0
		},
		{
			"children":[
				10,
				0,
				3,
				4,
				5,
				6,
				7,
				8,
				9
			],
			"name":"bone"
		}
	],
	"animations":[
		{
			"channels":[
				{
					"sampler":0,
					"target":{
						"node":0,
						"path":"translation"
					}
				},
				{
					"sampler":1,
					"target":{
						"node":0,
						"path":"rotation"
					}
				},
				{
					"sampler":2,
					"target":{
						"node":0,
						"path":"scale"
					}
				},
				{
					"sampler":3,
					"target":{
						"node":3,
						"path":"translation"
					}
				},
				{
					"sampler":4,
					"target":{
						"node":3,
						"path":"rotation"
					}
				},
				{
					"sampler":5,
					"target":{
						"node":3,
						"path":"scale"
					}
				},
				{
					"sampler":6,
					"target":{
						"node":2,
						"path":"translation"
					}
				},
				{
					"sampler":7,
					"target":{
						"node":2,
						"path":"rotation"
					}
				},
				{
					"sampler":8,
					"target":{
						"node":2,
						"path":"scale"
					}
				},
				{
					"sampler":9,
					"target":{
						"node":1,
						"path":"translation"
					}
				},
				{
					"sampler":10,
					"target":{
						"node":1,
						"path":"rotation"
					}
				},
				{
					"sampler":11,
					"target":{
						"node":1,
						"path":"scale"
					}
				},
				{
					"sampler":12,
					"target":{
						"node":4,
						"path":"translation"
					}
				},
				{
					"sampler":13,
					"target":{
						"node":4,
						"path":"rotation"
					}
				},
				{
					"sampler":14,
					"target":{
						"node":4,
						"path":"scale"
					}
				},
				{
					"sampler":15,
					"target":{
						"node":5,
						"path":"translation"
					}
				},
				{
					"sampler":16,
					"target":{
						"node":5,
						"path":"rotation"
					}
				},
				{
					"sampler":17,
					"target":{
						"node":5,
						"path":"scale"
					}
				},
				{
					"sampler":18,
					"target":{
						"node":6,
						"path":"translation"
					}
				},
				{
					"sampler":19,
					"target":{
						"node":6,
						"path":"rotation"
					}
				},
				{
					"sampler":20,
					"target":{
						"node":6,
						"path":"scale"
					}
				},
				{
					"sampler":21,
					"target":{
						"node":7,
						"path":"translation"
					}
				},
				{
					"sampler":22,
					"target":{
						"node":7,
						"path":"rotation"
					}
				},
				{
					"sampler":23,
					"target":{
						"node":7,
						"path":"scale"
					}
				},
				{
					"sampler":24,
					"target":{
						"node":8,
						"path":"translation"
					}
				},
				{
					"sampler":25,
					"target":{
						"node":8,
						"path":"rotation"
					}
				},
				{
					"sampler":26,
					"target":{
						"node":8,
						"path":"scale"
					}
				},
				{
					"sampler":27,
					"target":{
						"node":9,
						"path":"translation"
					}
				},
				{
					"sampler":28,
					"target":{
						"node":9,
						"path":"rotation"
					}
				},
				{
					"sampler":29,
					"target":{
						"node":9,
						"path":"scale"
					}
				}
			],
			"name":"talk",
			"samplers":[
				{
					"input":7,
					"interpolation":"STEP",
					"output":8
				},
				{
					"input":7,
					"interpolation":"STEP",
					"output":9
				},
				{
					"input":7,
					"interpolation":"STEP",
					"output":10
				},
				{
					"input":7,
					"interpolation":"STEP",
					"output":11
				},
				{
					"input":7,
					"interpolation":"STEP",
					"output":12
				},
				{
					"input":7,
					"interpolation":"STEP",
					"output":13
				},
				{
					"input":7,
					"interpolation":"STEP",
					"output":14
				},
				{
					"input":7,
					"interpolation":"STEP",
					"output":15
				},
				{
					"input":7,
					"interpolation":"STEP",
					"output":16
				},
				{
					"input":7,
					"interpolation":"STEP",
					"output":17
				},
				{
					"input":18,
					"interpolation":"LINEAR",
					"output":19
				},
				{
					"input":7,
					"interpolation":"STEP",
					"output":20
				},
				{
					"input":7,
					"interpolation":"STEP",
					"output":21
				},
				{
					"input":18,
					"interpolation":"LINEAR",
					"output":22
				},
				{
					"input":7,
					"interpolation":"STEP",
					"output":23
				},
				{
					"input":7,
					"interpolation":"STEP",
					"output":24
				},
				{
					"input":18,
					"interpolation":"LINEAR",
					"output":25
				},
				{
					"input":7,
					"interpolation":"STEP",
					"output":26
				},
				{
					"input":7,
					"interpolation":"STEP",
					"output":27
				},
				{
					"input":7,
					"interpolation":"STEP",
					"output":28
				},
				{
					"input":7,
					"interpolation":"STEP",
					"output":29
				},
				{
					"input":7,
					"interpolation":"STEP",
					"output":30
				},
				{
					"input":7,
					"interpolation":"STEP",
					"output":31
				},
				{
					"input":7,
					"interpolation":"STEP",
					"output":32
				},
				{
					"input":7,
					"interpolation":"STEP",
					"output":33
				},
				{
					"input":7,
					"interpolation":"STEP",
					"output":34
				},
				{
					"input":7,
					"interpolation":"STEP",
					"output":35
				},
				{
					"input":7,
					"interpolation":"STEP",
					"output":36
				},
				{
					"input":7,
					"interpolation":"STEP",
					"output":37
				},
				{
					"input":7,
					"interpolation":"STEP",
					"output":38
				}
			]
		}
	],
	"meshes":[
		{
			"name":"snowdog",
			"primitives":[
				{
					"attributes":{
						"POSITION":0,
						"NORMAL":1,
						"TEXCOORD_0":2,
						"JOINTS_0":3,
						"WEIGHTS_0":4
					},
					"indices":5
				}
			]
		}
	],
	"skins":[
		{
			"inverseBindMatrices":6,
			"joints":[
				0,
				3,
				2,
				1,
				4,
				5,
				6,
				7,
				8,
				9
			],
			"name":"bone"
		}
	],
	"accessors":[
		{
			"bufferView":0,
			"componentType":5126,
			"count":574,
			"max":[
				0.3224255442619324,
				0.5285018682479858,
				0.13266664743423462
			],
			"min":[
				-0.5012820959091187,
				-0.02885349839925766,
				-0.1326666921377182
			],
			"type":"VEC3"
		},
		{
			"bufferView":1,
			"componentType":5126,
			"count":574,
			"type":"VEC3"
		},
		{
			"bufferView":2,
			"componentType":5126,
			"count":574,
			"type":"VEC2"
		},
		{
			"bufferView":3,
			"componentType":5121,
			"count":574,
			"type":"VEC4"
		},
		{
			"bufferView":4,
			"componentType":5126,
			"count":574,
			"type":"VEC4"
		},
		{
			"bufferView":5,
			"componentType":5123,
			"count":3024,
			"type":"SCALAR"
		},
		{
			"bufferView":6,
			"componentType":5126,
			"count":10,
			"type":"MAT4"
		},
		{
			"bufferView":7,
			"componentType":5126,
			"count":2,
			"max":[
				1.6666666666666667
			],
			"min":[
				0.03333333333333333
			],
			"type":"SCALAR"
		},
		{
			"bufferView":8,
			"componentType":5126,
			"count":2,
			"type":"VEC3"
		},
		{
			"bufferView":9,
			"componentType":5126,
			"count":2,
			"type":"VEC4"
		},
		{
			"bufferView":10,
			"componentType":5126,
			"count":2,
			"type":"VEC3"
		},
		{
			"bufferView":11,
			"componentType":5126,
			"count":2,
			"type":"VEC3"
		},
		{
			"bufferView":12,
			"componentType":5126,
			"count":2,
			"type":"VEC4"
		},
		{
			"bufferView":13,
			"componentType":5126,
			"count":2,
			"type":"VEC3"
		},
		{
			"bufferView":14,
			"componentType":5126,
			"count":2,
			"type":"VEC3"
		},
		{
			"bufferView":15,
			"componentType":5126,
			"count":2,
			"type":"VEC4"
		},
		{
			"bufferView":16,
			"componentType":5126,
			"count":2,
			"type":"VEC3"
		},
		{
			"bufferView":17,
			"componentType":5126,
			"count":2,
			"type":"VEC3"
		},
		{
			"bufferView":18,
			"componentType":5126,
			"count":50,
			"max":[
				1.6666666666666667
			],
			"min":[
				0.03333333333333333
			],
			"type":"SCALAR"
		},
		{
			"bufferView":19,
			"componentType":5126,
			"count":50,
			"type":"VEC4"
		},
		{
			"bufferView":20,
			"componentType":5126,
			"count":2,
			"type":"VEC3"
		},
		{
			"bufferView":21,
			"componentType":5126,
			"count":2,
			"type":"VEC3"
		},
		{
			"bufferView":22,
			"componentType":5126,
			"count":50,
			"type":"VEC4"
		},
		{
			"bufferView":23,
			"componentType":5126,
			"count":2,
			"type":"VEC3"
		},
		{
			"bufferView":24,
			"componentType":5126,
			"count":2,
			"type":"VEC3"
		},
		{
			"bufferView":25,
			"componentType":5126,
			"count":50,
			"type":"VEC4"
		},
		{
			"bufferView":26,
			"componentType":5126,
			"count":2,
			"type":"VEC3"
		},
		{
			"bufferView":27,
			"componentType":5126,
			"count":2,
			"type":"VEC3"
		},
		{
			"bufferView":28,
			"componentType":5126,
			"count":2,
			"type":"VEC4"
		},
		{
			"bufferView":29,
			"componentType":5126,
			"count":2,
			"type":"VEC3"
		},
		{
			"bufferView":30,
			"componentType":5126,
			"count":2,
			"type":"VEC3"
		},
		{
			"bufferView":31,
			"componentType":5126,
			"count":2,
			"type":"VEC4"
		},
		{
			"bufferView":32,
			"componentType":5126,
			"count":2,
			"type":"VEC3"
		},
		{
			"bufferView":33,
			"componentType":5126,
			"count":2,
			"type":"VEC3"
		},
		{
			"bufferView":34,
			"componentType":5126,
			"count":2,
			"type":"VEC4"
		},
		{
			"bufferView":35,
			"componentType":5126,
			"count":2,
			"type":"VEC3"
		},
		{
			"bufferView":36,
			"componentType":5126,
			"count":2,
			"type":"VEC3"
		},
		{
			"bufferView":37,
			"componentType":5126,
			"count":2,
			"type":"VEC4"
		},
		{
			"bufferView":38,
			"componentType":5126,
			"count":2,
			"type":"VEC3"
		}
	],
	"bufferViews":[
		{
			"buffer":0,
			"byteLength":6888,
			"byteOffset":0,
			"target":34962
		},
		{
			"buffer":0,
			"byteLength":6888,
			"byteOffset":6888,
			"target":34962
		},
		{
			"buffer":0,
			"byteLength":4592,
			"byteOffset":13776,
			"target":34962
		},
		{
			"buffer":0,
			"byteLength":2296,
			"byteOffset":18368,
			"target":34962
		},
		{
			"buffer":0,
			"byteLength":9184,
			"byteOffset":20664,
			"target":34962
		},
		{
			"buffer":0,
			"byteLength":6048,
			"byteOffset":29848,
			"target":34963
		},
		{
			"buffer":0,
			"byteLength":640,
			"byteOffset":35896
		},
		{
			"buffer":0,
			"byteLength":8,
			"byteOffset":36536
		},
		{
			"buffer":0,
			"byteLength":24,
			"byteOffset":36544
		},
		{
			"buffer":0,
			"byteLength":32,
			"byteOffset":36568
		},
		{
			"buffer":0,
			"byteLength":24,
			"byteOffset":36600
		},
		{
			"buffer":0,
			"byteLength":24,
			"byteOffset":36624
		},
		{
			"buffer":0,
			"byteLength":32,
			"byteOffset":36648
		},
		{
			"buffer":0,
			"byteLength":24,
			"byteOffset":36680
		},
		{
			"buffer":0,
			"byteLength":24,
			"byteOffset":36704
		},
		{
			"buffer":0,
			"byteLength":32,
			"byteOffset":36728
		},
		{
			"buffer":0,
			"byteLength":24,
			"byteOffset":36760
		},
		{
			"buffer":0,
			"byteLength":24,
			"byteOffset":36784
		},
		{
			"buffer":0,
			"byteLength":200,
			"byteOffset":36808
		},
		{
			"buffer":0,
			"byteLength":800,
			"byteOffset":37008
		},
		{
			"buffer":0,
			"byteLength":24,
			"byteOffset":37808
		},
		{
			"buffer":0,
			"byteLength":24,
			"byteOffset":37832
		},
		{
			"buffer":0,
			"byteLength":800,
			"byteOffset":37856
		},
		{
			"buffer":0,
			"byteLength":24,
			"byteOffset":38656
		},
		{
			"buffer":0,
			"byteLength":24,
			"byteOffset":38680
		},
		{
			"buffer":0,
			"byteLength":800,
			"byteOffset":38704
		},
		{
			"buffer":0,
			"byteLength":24,
			"byteOffset":39504
		},
		{
			"buffer":0,
			"byteLength":24,
			"byteOffset":39528
		},
		{
			"buffer":0,
			"byteLength":32,
			"byteOffset":39552
		},
		{
			"buffer":0,
			"byteLength":24,
			"byteOffset":39584
		},
		{
			"buffer":0,
			"byteLength":24,
			"byteOffset":39608
		},
		{
			"buffer":0,
			"byteLength":32,
			"byteOffset":39632
		},
		{
			"buffer":0,
			"byteLength":24,
			"byteOffset":39664
		},
		{
			"buffer":0,
			"byteLength":24,
			"byteOffset":39688
		},
		{
			"buffer":0,
			"byteLength":32,
			"byteOffset":39712
		},
		{
			"buffer":0,
			"byteLength":24,
			"byteOffset":39744
		},
		{
			"buffer":0,
			"byteLength":24,
			"byteOffset":39768
		},
		{
			"buffer":0,
			"byteLength":32,
			"byteOffset":39792
		},
		{
			"buffer":0,
			"byteLength":24,
			"byteOffset":39824
		}
	],
	"buffers":[
		{
			"byteLength":39848,
			"uri":"data:application/octet-stream;base64,"
		}
	]
}
