{
	"asset":{
		"generator":"Khronos glTF Blender I/O v3.6.28",
		"version":"2.0"
	},
	"scene":0,
	"scenes":[
		{
			"name":"Scene",
			"nodes":[
				0
			]
		}
	],
	"nodes":[
		{
			"mesh":0,
			"name":"snowman"
		}
	],
	"meshes":[
		{
			"name":"\u7403\u4f53",
			"primitives":[
				{
					"attributes":{
						"POSITION":0,
						"NORMAL":1,
						"TEXCOORD_0":2
					},
					"indices":3
				},
				{
					"attributes":{
						"POSITION":4,
						"NORMAL":5,
						"TEXCOORD_0":6
					},
					"indices":7
				}
			]
		}
	],
	"accessors":[
		{
			"bufferView":0,
			"componentType":5126,
			"count":1164,
			"max":[
				0.29983004927635193,
				0.9963840246200562,
				0.29982995986938477
			],
			"min":[
				-0.29983025789260864,
				-0.019239947199821472,
				-0.2998301684856415
			],
			"type":"VEC3"
		},
		{
			"bufferView":1,
			"componentType":5126,
			"count":1164,
			"type":"VEC3"
		},
		{
			"bufferView":2,
			"componentType":5126,
			"count":1164,
			"type":"VEC2"
		},
		{
			"bufferView":3,
			"componentType":5123,
			"count":5196,
			"type":"SCALAR"
		},
		{
			"bufferView":4,
			"componentType":5126,
			"count":16,
			"max":[
				0.023127257823944092,
				0.7451068162918091,
				-0.2564100921154022
			],
			"min":[
				-0.023127280175685883,
				0.6993159651756287,
				-0.3951229453086853
			],
			"type":"VEC3"
		},
		{
			"bufferView":5,
			"componentType":5126,
			"count":16,
			"type":"VEC3"
		},
		{
			"bufferView":6,
			"componentType":5126,
			"count":16,
			"type":"VEC2"
		},
		{
			"bufferView":7,
			"componentType":5123,
			"count":24,
			"type":"SCALAR"
		}
	],
	"bufferViews":[
		{
			"buffer":0,
			"byteLength":13968,
			"byteOffset":0,
			"target":34962
		},
		{
			"buffer":0,
			"byteLength":13968,
			"byteOffset":13968,
			"target":34962
		},
		{
			"buffer":0,
			"byteLength":9312,
			"byteOffset":27936,
			"target":34962
		},
		{
			"buffer":0,
			"byteLength":10392,
			"byteOffset":37248,
			"target":34963
		},
		{
			"buffer":0,
			"byteLength":192,
			"byteOffset":47640,
			"target":34962
		},
		{
			"buffer":0,
			"byteLength":192,
			"byteOffset":47832,
			"target":34962
		},
		{
			"buffer":0,
			"byteLength":128,
			"byteOffset":48024,
			"target":34962
		},
		{
			"buffer":0,
			"byteLength":48,
			"byteOffset":48152,
			"target":34963
		}
	],
	"buffers":[
		{
			"byteLength":48200,
			"uri":"data:application/octet-stream;base64,"
		}
	]
}
