{
	"asset":{
		"generator":"Khronos glTF Blender I/O v3.6.28",
		"version":"2.0"
	},
	"extensionsUsed":[
		"KHR_materials_specular",
		"KHR_materials_ior"
	],
	"scene":0,
	"scenes":[
		{
			"name":"Scene",
			"nodes":[
				0
			]
		}
	],
	"nodes":[
		{
			"mesh":0,
			"name":"snowman"
		}
	],
	"materials":[
		{
			"doubleSided":true,
			"extensions":{
				"KHR_materials_specular":{
					"specularColorFactor":[
						0,
						0,
						0
					]
				},
				"KHR_materials_ior":{
					"ior":1.4500000476837158
				}
			},
			"name":"snow",
			"pbrMetallicRoughness":{
				"metallicFactor":0
			}
		},
		{
			"doubleSided":true,
			"extensions":{
				"KHR_materials_specular":{
					"specularColorFactor":[
						1.1552842826859664,
						0.8620861632950056,
						0.8039452194099771
					]
				},
				"KHR_materials_ior":{
					"ior":1.4500000476837158
				}
			},
			"name":"nose",
			"pbrMetallicRoughness":{
				"baseColorFactor":[
					0.8000000715255737,
					0.2682442367076874,
					0.1627974957227707,
					1
				],
				"metallicFactor":0,
				"roughnessFactor":0.8563636541366577
			}
		}
	],
	"meshes":[
		{
			"name":"\u7403\u4f53",
			"primitives":[
				{
					"attributes":{
						"POSITION":0,
						"NORMAL":1,
						"TEXCOORD_0":2
					},
					"indices":3,
					"material":0
				},
				{
					"attributes":{
						"POSITION":4,
						"NORMAL":5,
						"TEXCOORD_0":6
					},
					"indices":7,
					"material":1
				}
			]
		}
	],
	"accessors":[
		{
			"bufferView":0,
			"componentType":5126,
			"count":1164,
			"max":[
				0.9999997019767761,
				2.3873298168182373,
				0.9999993443489075
			],
			"min":[
				-0.9999990463256836,
				-1,
				-1
			],
			"type":"VEC3"
		},
		{
			"bufferView":1,
			"componentType":5126,
			"count":1164,
			"type":"VEC3"
		},
		{
			"bufferView":2,
			"componentType":5126,
			"count":1164,
			"type":"VEC2"
		},
		{
			"bufferView":3,
			"componentType":5123,
			"count":5196,
			"type":"SCALAR"
		},
		{
			"bufferView":4,
			"componentType":5126,
			"count":16,
			"max":[
				1.3178220987319946,
				1.5492650270462036,
				0.07713454216718674
			],
			"min":[
				0.8551841378211975,
				1.3965424299240112,
				-0.07713454216718674
			],
			"type":"VEC3"
		},
		{
			"bufferView":5,
			"componentType":5126,
			"count":16,
			"type":"VEC3"
		},
		{
			"bufferView":6,
			"componentType":5126,
			"count":16,
			"type":"VEC2"
		},
		{
			"bufferView":7,
			"componentType":5123,
			"count":24,
			"type":"SCALAR"
		}
	],
	"bufferViews":[
		{
			"buffer":0,
			"byteLength":13968,
			"byteOffset":0,
			"target":34962
		},
		{
			"buffer":0,
			"byteLength":13968,
			"byteOffset":13968,
			"target":34962
		},
		{
			"buffer":0,
			"byteLength":9312,
			"byteOffset":27936,
			"target":34962
		},
		{
			"buffer":0,
			"byteLength":10392,
			"byteOffset":37248,
			"target":34963
		},
		{
			"buffer":0,
			"byteLength":192,
			"byteOffset":47640,
			"target":34962
		},
		{
			"buffer":0,
			"byteLength":192,
			"byteOffset":47832,
			"target":34962
		},
		{
			"buffer":0,
			"byteLength":128,
			"byteOffset":48024,
			"target":34962
		},
		{
			"buffer":0,
			"byteLength":48,
			"byteOffset":48152,
			"target":34963
		}
	],
	"buffers":[
		{
			"byteLength":48200,
			"uri":"data:application/octet-stream;base64,"
		}
	]
}
