{
	"asset":{
		"generator":"Khronos glTF Blender I/O v3.6.28",
		"version":"2.0"
	},
	"scene":0,
	"scenes":[
		{
			"name":"Scene",
			"nodes":[
				11
			]
		}
	],
	"nodes":[
		{
			"name":"root",
			"translation":[
				0,
				5.960464477539063e-08,
				0
			]
		},
		{
			"name":"neck3",
			"rotation":[
				0.24127323925495148,
				0,
				0,
				0.9704572558403015
			],
			"translation":[
				0,
				1.1889126300811768,
				-5.960464477539063e-08
			]
		},
		{
			"children":[
				1
			],
			"name":"neck2",
			"rotation":[
				0.04303582385182381,
				0,
				0,
				0.9990735650062561
			],
			"scale":[
				1,
				0.9999998807907104,
				0.9999998807907104
			],
			"translation":[
				0,
				1.4821282625198364,
				-1.5273690223693848e-07
			]
		},
		{
			"children":[
				2
			],
			"name":"neck1",
			"rotation":[
				-0.6313414573669434,
				0,
				0,
				0.775505006313324
			],
			"scale":[
				1,
				0.9999999403953552,
				1
			],
			"translation":[
				0,
				5.960464477539063e-08,
				0
			]
		},
		{
			"name":"ear_r",
			"rotation":[
				-2.980232594040899e-08,
				1.1920928244535389e-07,
				0,
				1
			],
			"scale":[
				1,
				0.9999999403953552,
				0.9999999403953552
			],
			"translation":[
				0.5071201324462891,
				1.633806824684143,
				-3.1119797229766846
			]
		},
		{
			"name":"ear_l",
			"rotation":[
				-2.980232594040899e-08,
				-1.1920928244535389e-07,
				0,
				1
			],
			"scale":[
				1,
				0.9999999403953552,
				0.9999999403953552
			],
			"translation":[
				-0.5071201324462891,
				1.633806824684143,
				-3.1119797229766846
			]
		},
		{
			"name":"leg_f_r",
			"rotation":[
				0.15221527218818665,
				0,
				0,
				0.9883473515510559
			],
			"translation":[
				0.359550416469574,
				-0.5913030505180359,
				-2.7591238021850586
			]
		},
		{
			"name":"leg_b_r",
			"rotation":[
				-0.17302794754505157,
				1.174112469470856e-07,
				-2.0626540475632282e-08,
				0.9849169254302979
			],
			"translation":[
				0.35137879848480225,
				-0.7214256525039673,
				0.25597143173217773
			]
		},
		{
			"name":"leg_f_l",
			"rotation":[
				0.15221527218818665,
				0,
				0,
				0.9883473515510559
			],
			"translation":[
				-0.359550416469574,
				-0.5913030505180359,
				-2.7591238021850586
			]
		},
		{
			"name":"leg_b_l",
			"rotation":[
				-0.17302794754505157,
				-1.174112469470856e-07,
				2.0626540475632282e-08,
				0.9849169254302979
			],
			"translation":[
				-0.35137879848480225,
				-0.7214256525039673,
				0.25597143173217773
			]
		},
		{
			"mesh":0,
			"name":"snowdog",
			"skin":0
		},
		{
			"children":[
				10,
				0,
				3,
				4,
				5,
				6,
				7,
				8,
				9
			],
			"name":"bone",
			"scale":[
				0.19069397449493408,
				0.19069397449493408,
				0.19069397449493408
			],
			"translation":[
				0,
				0.12715086340904236,
				0.24438215792179108
			]
		}
	],
	"meshes":[
		{
			"name":"snowdog",
			"primitives":[
				{
					"attributes":{
						"POSITION":0,
						"NORMAL":1,
						"TEXCOORD_0":2,
						"JOINTS_0":3,
						"WEIGHTS_0":4
					},
					"indices":5
				}
			]
		}
	],
	"skins":[
		{
			"inverseBindMatrices":6,
			"joints":[
				0,
				3,
				2,
				1,
				4,
				5,
				6,
				7,
				8,
				9
			],
			"name":"bone"
		}
	],
	"accessors":[
		{
			"bufferView":0,
			"componentType":5126,
			"count":2016,
			"max":[
				0.132666677236557,
				0.5285019278526306,
				0.32242551445961
			],
			"min":[
				-0.1326666623353958,
				-0.02885349839925766,
				-0.5012820959091187
			],
			"type":"VEC3"
		},
		{
			"bufferView":1,
			"componentType":5126,
			"count":2016,
			"type":"VEC3"
		},
		{
			"bufferView":2,
			"componentType":5126,
			"count":2016,
			"type":"VEC2"
		},
		{
			"bufferView":3,
			"componentType":5121,
			"count":2016,
			"type":"VEC4"
		},
		{
			"bufferView":4,
			"componentType":5126,
			"count":2016,
			"type":"VEC4"
		},
		{
			"bufferView":5,
			"componentType":5123,
			"count":3024,
			"type":"SCALAR"
		},
		{
			"bufferView":6,
			"componentType":5126,
			"count":10,
			"type":"MAT4"
		}
	],
	"bufferViews":[
		{
			"buffer":0,
			"byteLength":24192,
			"byteOffset":0,
			"target":34962
		},
		{
			"buffer":0,
			"byteLength":24192,
			"byteOffset":24192,
			"target":34962
		},
		{
			"buffer":0,
			"byteLength":16128,
			"byteOffset":48384,
			"target":34962
		},
		{
			"buffer":0,
			"byteLength":8064,
			"byteOffset":64512,
			"target":34962
		},
		{
			"buffer":0,
			"byteLength":32256,
			"byteOffset":72576,
			"target":34962
		},
		{
			"buffer":0,
			"byteLength":6048,
			"byteOffset":104832,
			"target":34963
		},
		{
			"buffer":0,
			"byteLength":640,
			"byteOffset":110880
		}
	],
	"buffers":[
		{
			"byteLength":111520,
			"uri":"data:application/octet-stream;base64,"
		}
	]
}
