{
	"asset":{
		"generator":"Khronos glTF Blender I/O v3.6.28",
		"version":"2.0"
	},
	"scene":0,
	"scenes":[
		{
			"name":"Scene",
			"nodes":[
				9
			]
		}
	],
	"nodes":[
		{
			"name":"root",
			"rotation":[
				0,
				-0.7071065306663513,
				0,
				0.7071070075035095
			],
			"translation":[
				1.6120534951369336e-07,
				0.46206730604171753,
				0.43621742725372314
			]
		},
		{
			"name":"leg_b_r",
			"rotation":[
				0.7071070075035095,
				0,
				-0.7071065306663513,
				0
			],
			"translation":[
				0.19064337015151978,
				0.2678132653236389,
				0.4911484122276306
			]
		},
		{
			"name":"head",
			"rotation":[
				-4.3520742565306136e-14,
				1.2894751932890358e-07,
				-8.195640077701682e-08,
				1
			],
			"translation":[
				5.86732298302195e-08,
				0.3880515396595001,
				-4.551914400963142e-14
			]
		},
		{
			"children":[
				2
			],
			"name":"neck",
			"rotation":[
				1.0973603359332174e-08,
				7.112328148650704e-08,
				-0.4460792541503906,
				0.8949934840202332
			],
			"scale":[
				0.9999999403953552,
				0.9999999403953552,
				1
			],
			"translation":[
				-9.126960520688954e-08,
				0.7160863876342773,
				1.7763568394002505e-14
			]
		},
		{
			"name":"leg_f_r",
			"rotation":[
				-2.9163770065565586e-08,
				1.340385669124089e-08,
				0.603102445602417,
				0.7976637482643127
			],
			"scale":[
				0.9999998807907104,
				0.9999999403953552,
				1
			],
			"translation":[
				-0.11765389144420624,
				0.7289149761199951,
				-0.22424714267253876
			]
		},
		{
			"name":"leg_f_l",
			"rotation":[
				0.603102445602417,
				-0.7976637482643127,
				2.464116732880939e-07,
				2.503998359770776e-07
			],
			"scale":[
				0.9999999403953552,
				1.0000003576278687,
				1
			],
			"translation":[
				-0.11765384674072266,
				0.7289151549339294,
				0.2242468148469925
			]
		},
		{
			"children":[
				3,
				4,
				5
			],
			"name":"body",
			"rotation":[
				-0.48105138540267944,
				-0.5182561874389648,
				0.48105162382125854,
				0.5182562470436096
			],
			"scale":[
				1,
				1.0000001192092896,
				1
			],
			"translation":[
				1.1463491489394073e-07,
				0.5557732582092285,
				0.3101990520954132
			]
		},
		{
			"name":"leg_b_l",
			"rotation":[
				0.7071070075035095,
				0,
				0.7071065306663513,
				0
			],
			"translation":[
				-0.19064337015151978,
				0.2678132653236389,
				0.4911484122276306
			]
		},
		{
			"mesh":0,
			"name":"snowbear",
			"skin":0
		},
		{
			"children":[
				8,
				0,
				1,
				6,
				7
			],
			"name":"\u9aa8\u67b6"
		}
	],
	"animations":[
		{
			"channels":[
				{
					"sampler":0,
					"target":{
						"node":0,
						"path":"translation"
					}
				},
				{
					"sampler":1,
					"target":{
						"node":0,
						"path":"rotation"
					}
				},
				{
					"sampler":2,
					"target":{
						"node":0,
						"path":"scale"
					}
				},
				{
					"sampler":3,
					"target":{
						"node":1,
						"path":"translation"
					}
				},
				{
					"sampler":4,
					"target":{
						"node":1,
						"path":"rotation"
					}
				},
				{
					"sampler":5,
					"target":{
						"node":1,
						"path":"scale"
					}
				},
				{
					"sampler":6,
					"target":{
						"node":6,
						"path":"translation"
					}
				},
				{
					"sampler":7,
					"target":{
						"node":6,
						"path":"rotation"
					}
				},
				{
					"sampler":8,
					"target":{
						"node":6,
						"path":"scale"
					}
				},
				{
					"sampler":9,
					"target":{
						"node":3,
						"path":"translation"
					}
				},
				{
					"sampler":10,
					"target":{
						"node":3,
						"path":"rotation"
					}
				},
				{
					"sampler":11,
					"target":{
						"node":3,
						"path":"scale"
					}
				},
				{
					"sampler":12,
					"target":{
						"node":2,
						"path":"translation"
					}
				},
				{
					"sampler":13,
					"target":{
						"node":2,
						"path":"rotation"
					}
				},
				{
					"sampler":14,
					"target":{
						"node":2,
						"path":"scale"
					}
				},
				{
					"sampler":15,
					"target":{
						"node":4,
						"path":"translation"
					}
				},
				{
					"sampler":16,
					"target":{
						"node":4,
						"path":"rotation"
					}
				},
				{
					"sampler":17,
					"target":{
						"node":4,
						"path":"scale"
					}
				},
				{
					"sampler":18,
					"target":{
						"node":5,
						"path":"translation"
					}
				},
				{
					"sampler":19,
					"target":{
						"node":5,
						"path":"rotation"
					}
				},
				{
					"sampler":20,
					"target":{
						"node":5,
						"path":"scale"
					}
				},
				{
					"sampler":21,
					"target":{
						"node":7,
						"path":"translation"
					}
				},
				{
					"sampler":22,
					"target":{
						"node":7,
						"path":"rotation"
					}
				},
				{
					"sampler":23,
					"target":{
						"node":7,
						"path":"scale"
					}
				}
			],
			"name":"attack",
			"samplers":[
				{
					"input":7,
					"interpolation":"LINEAR",
					"output":8
				},
				{
					"input":9,
					"interpolation":"STEP",
					"output":10
				},
				{
					"input":9,
					"interpolation":"STEP",
					"output":11
				},
				{
					"input":9,
					"interpolation":"STEP",
					"output":12
				},
				{
					"input":9,
					"interpolation":"STEP",
					"output":13
				},
				{
					"input":9,
					"interpolation":"STEP",
					"output":14
				},
				{
					"input":9,
					"interpolation":"STEP",
					"output":15
				},
				{
					"input":7,
					"interpolation":"LINEAR",
					"output":16
				},
				{
					"input":9,
					"interpolation":"STEP",
					"output":17
				},
				{
					"input":9,
					"interpolation":"LINEAR",
					"output":18
				},
				{
					"input":7,
					"interpolation":"LINEAR",
					"output":19
				},
				{
					"input":9,
					"interpolation":"STEP",
					"output":20
				},
				{
					"input":9,
					"interpolation":"STEP",
					"output":21
				},
				{
					"input":9,
					"interpolation":"STEP",
					"output":22
				},
				{
					"input":9,
					"interpolation":"STEP",
					"output":23
				},
				{
					"input":9,
					"interpolation":"LINEAR",
					"output":24
				},
				{
					"input":7,
					"interpolation":"LINEAR",
					"output":25
				},
				{
					"input":9,
					"interpolation":"STEP",
					"output":26
				},
				{
					"input":9,
					"interpolation":"LINEAR",
					"output":27
				},
				{
					"input":7,
					"interpolation":"LINEAR",
					"output":28
				},
				{
					"input":9,
					"interpolation":"STEP",
					"output":29
				},
				{
					"input":9,
					"interpolation":"STEP",
					"output":30
				},
				{
					"input":9,
					"interpolation":"STEP",
					"output":31
				},
				{
					"input":9,
					"interpolation":"STEP",
					"output":32
				}
			]
		},
		{
			"channels":[
				{
					"sampler":0,
					"target":{
						"node":0,
						"path":"translation"
					}
				},
				{
					"sampler":1,
					"target":{
						"node":0,
						"path":"rotation"
					}
				},
				{
					"sampler":2,
					"target":{
						"node":0,
						"path":"scale"
					}
				},
				{
					"sampler":3,
					"target":{
						"node":1,
						"path":"translation"
					}
				},
				{
					"sampler":4,
					"target":{
						"node":1,
						"path":"rotation"
					}
				},
				{
					"sampler":5,
					"target":{
						"node":1,
						"path":"scale"
					}
				},
				{
					"sampler":6,
					"target":{
						"node":6,
						"path":"translation"
					}
				},
				{
					"sampler":7,
					"target":{
						"node":6,
						"path":"rotation"
					}
				},
				{
					"sampler":8,
					"target":{
						"node":6,
						"path":"scale"
					}
				},
				{
					"sampler":9,
					"target":{
						"node":3,
						"path":"translation"
					}
				},
				{
					"sampler":10,
					"target":{
						"node":3,
						"path":"rotation"
					}
				},
				{
					"sampler":11,
					"target":{
						"node":3,
						"path":"scale"
					}
				},
				{
					"sampler":12,
					"target":{
						"node":2,
						"path":"translation"
					}
				},
				{
					"sampler":13,
					"target":{
						"node":2,
						"path":"rotation"
					}
				},
				{
					"sampler":14,
					"target":{
						"node":2,
						"path":"scale"
					}
				},
				{
					"sampler":15,
					"target":{
						"node":4,
						"path":"translation"
					}
				},
				{
					"sampler":16,
					"target":{
						"node":4,
						"path":"rotation"
					}
				},
				{
					"sampler":17,
					"target":{
						"node":4,
						"path":"scale"
					}
				},
				{
					"sampler":18,
					"target":{
						"node":5,
						"path":"translation"
					}
				},
				{
					"sampler":19,
					"target":{
						"node":5,
						"path":"rotation"
					}
				},
				{
					"sampler":20,
					"target":{
						"node":5,
						"path":"scale"
					}
				},
				{
					"sampler":21,
					"target":{
						"node":7,
						"path":"translation"
					}
				},
				{
					"sampler":22,
					"target":{
						"node":7,
						"path":"rotation"
					}
				},
				{
					"sampler":23,
					"target":{
						"node":7,
						"path":"scale"
					}
				}
			],
			"name":"walk",
			"samplers":[
				{
					"input":33,
					"interpolation":"STEP",
					"output":34
				},
				{
					"input":33,
					"interpolation":"STEP",
					"output":35
				},
				{
					"input":33,
					"interpolation":"STEP",
					"output":36
				},
				{
					"input":37,
					"interpolation":"LINEAR",
					"output":38
				},
				{
					"input":37,
					"interpolation":"LINEAR",
					"output":39
				},
				{
					"input":33,
					"interpolation":"STEP",
					"output":40
				},
				{
					"input":33,
					"interpolation":"STEP",
					"output":41
				},
				{
					"input":33,
					"interpolation":"STEP",
					"output":42
				},
				{
					"input":33,
					"interpolation":"STEP",
					"output":43
				},
				{
					"input":33,
					"interpolation":"STEP",
					"output":44
				},
				{
					"input":37,
					"interpolation":"LINEAR",
					"output":45
				},
				{
					"input":33,
					"interpolation":"STEP",
					"output":46
				},
				{
					"input":33,
					"interpolation":"STEP",
					"output":47
				},
				{
					"input":33,
					"interpolation":"STEP",
					"output":48
				},
				{
					"input":33,
					"interpolation":"STEP",
					"output":49
				},
				{
					"input":33,
					"interpolation":"STEP",
					"output":50
				},
				{
					"input":37,
					"interpolation":"LINEAR",
					"output":51
				},
				{
					"input":33,
					"interpolation":"STEP",
					"output":52
				},
				{
					"input":33,
					"interpolation":"STEP",
					"output":53
				},
				{
					"input":37,
					"interpolation":"LINEAR",
					"output":54
				},
				{
					"input":33,
					"interpolation":"STEP",
					"output":55
				},
				{
					"input":37,
					"interpolation":"LINEAR",
					"output":56
				},
				{
					"input":37,
					"interpolation":"LINEAR",
					"output":57
				},
				{
					"input":33,
					"interpolation":"STEP",
					"output":58
				}
			]
		}
	],
	"meshes":[
		{
			"name":"snowdog",
			"primitives":[
				{
					"attributes":{
						"POSITION":0,
						"NORMAL":1,
						"TEXCOORD_0":2,
						"JOINTS_0":3,
						"WEIGHTS_0":4
					},
					"indices":5
				}
			]
		}
	],
	"skins":[
		{
			"inverseBindMatrices":6,
			"joints":[
				0,
				1,
				6,
				3,
				2,
				4,
				5,
				7
			],
			"name":"\u9aa8\u67b6"
		}
	],
	"accessors":[
		{
			"bufferView":0,
			"componentType":5126,
			"count":574,
			"max":[
				0.35683903098106384,
				1.3439531326293945,
				0.6824649572372437
			],
			"min":[
				-0.356957346200943,
				-0.024950895458459854,
				-0.9476061463356018
			],
			"type":"VEC3"
		},
		{
			"bufferView":1,
			"componentType":5126,
			"count":574,
			"type":"VEC3"
		},
		{
			"bufferView":2,
			"componentType":5126,
			"count":574,
			"type":"VEC2"
		},
		{
			"bufferView":3,
			"componentType":5121,
			"count":574,
			"type":"VEC4"
		},
		{
			"bufferView":4,
			"componentType":5126,
			"count":574,
			"type":"VEC4"
		},
		{
			"bufferView":5,
			"componentType":5123,
			"count":3024,
			"type":"SCALAR"
		},
		{
			"bufferView":6,
			"componentType":5126,
			"count":8,
			"type":"MAT4"
		},
		{
			"bufferView":7,
			"componentType":5126,
			"count":15,
			"max":[
				0.5
			],
			"min":[
				0.03333333333333333
			],
			"type":"SCALAR"
		},
		{
			"bufferView":8,
			"componentType":5126,
			"count":15,
			"type":"VEC3"
		},
		{
			"bufferView":9,
			"componentType":5126,
			"count":2,
			"max":[
				0.5
			],
			"min":[
				0.03333333333333333
			],
			"type":"SCALAR"
		},
		{
			"bufferView":10,
			"componentType":5126,
			"count":2,
			"type":"VEC4"
		},
		{
			"bufferView":11,
			"componentType":5126,
			"count":2,
			"type":"VEC3"
		},
		{
			"bufferView":12,
			"componentType":5126,
			"count":2,
			"type":"VEC3"
		},
		{
			"bufferView":13,
			"componentType":5126,
			"count":2,
			"type":"VEC4"
		},
		{
			"bufferView":14,
			"componentType":5126,
			"count":2,
			"type":"VEC3"
		},
		{
			"bufferView":15,
			"componentType":5126,
			"count":2,
			"type":"VEC3"
		},
		{
			"bufferView":16,
			"componentType":5126,
			"count":15,
			"type":"VEC4"
		},
		{
			"bufferView":17,
			"componentType":5126,
			"count":2,
			"type":"VEC3"
		},
		{
			"bufferView":18,
			"componentType":5126,
			"count":2,
			"type":"VEC3"
		},
		{
			"bufferView":19,
			"componentType":5126,
			"count":15,
			"type":"VEC4"
		},
		{
			"bufferView":20,
			"componentType":5126,
			"count":2,
			"type":"VEC3"
		},
		{
			"bufferView":21,
			"componentType":5126,
			"count":2,
			"type":"VEC3"
		},
		{
			"bufferView":22,
			"componentType":5126,
			"count":2,
			"type":"VEC4"
		},
		{
			"bufferView":23,
			"componentType":5126,
			"count":2,
			"type":"VEC3"
		},
		{
			"bufferView":24,
			"componentType":5126,
			"count":2,
			"type":"VEC3"
		},
		{
			"bufferView":25,
			"componentType":5126,
			"count":15,
			"type":"VEC4"
		},
		{
			"bufferView":26,
			"componentType":5126,
			"count":2,
			"type":"VEC3"
		},
		{
			"bufferView":27,
			"componentType":5126,
			"count":2,
			"type":"VEC3"
		},
		{
			"bufferView":28,
			"componentType":5126,
			"count":15,
			"type":"VEC4"
		},
		{
			"bufferView":29,
			"componentType":5126,
			"count":2,
			"type":"VEC3"
		},
		{
			"bufferView":30,
			"componentType":5126,
			"count":2,
			"type":"VEC3"
		},
		{
			"bufferView":31,
			"componentType":5126,
			"count":2,
			"type":"VEC4"
		},
		{
			"bufferView":32,
			"componentType":5126,
			"count":2,
			"type":"VEC3"
		},
		{
			"bufferView":33,
			"componentType":5126,
			"count":2,
			"max":[
				0.6666666666666666
			],
			"min":[
				0.03333333333333333
			],
			"type":"SCALAR"
		},
		{
			"bufferView":34,
			"componentType":5126,
			"count":2,
			"type":"VEC3"
		},
		{
			"bufferView":35,
			"componentType":5126,
			"count":2,
			"type":"VEC4"
		},
		{
			"bufferView":36,
			"componentType":5126,
			"count":2,
			"type":"VEC3"
		},
		{
			"bufferView":37,
			"componentType":5126,
			"count":20,
			"max":[
				0.6666666666666666
			],
			"min":[
				0.03333333333333333
			],
			"type":"SCALAR"
		},
		{
			"bufferView":38,
			"componentType":5126,
			"count":20,
			"type":"VEC3"
		},
		{
			"bufferView":39,
			"componentType":5126,
			"count":20,
			"type":"VEC4"
		},
		{
			"bufferView":40,
			"componentType":5126,
			"count":2,
			"type":"VEC3"
		},
		{
			"bufferView":41,
			"componentType":5126,
			"count":2,
			"type":"VEC3"
		},
		{
			"bufferView":42,
			"componentType":5126,
			"count":2,
			"type":"VEC4"
		},
		{
			"bufferView":43,
			"componentType":5126,
			"count":2,
			"type":"VEC3"
		},
		{
			"bufferView":44,
			"componentType":5126,
			"count":2,
			"type":"VEC3"
		},
		{
			"bufferView":45,
			"componentType":5126,
			"count":20,
			"type":"VEC4"
		},
		{
			"bufferView":46,
			"componentType":5126,
			"count":2,
			"type":"VEC3"
		},
		{
			"bufferView":47,
			"componentType":5126,
			"count":2,
			"type":"VEC3"
		},
		{
			"bufferView":48,
			"componentType":5126,
			"count":2,
			"type":"VEC4"
		},
		{
			"bufferView":49,
			"componentType":5126,
			"count":2,
			"type":"VEC3"
		},
		{
			"bufferView":50,
			"componentType":5126,
			"count":2,
			"type":"VEC3"
		},
		{
			"bufferView":51,
			"componentType":5126,
			"count":20,
			"type":"VEC4"
		},
		{
			"bufferView":52,
			"componentType":5126,
			"count":2,
			"type":"VEC3"
		},
		{
			"bufferView":53,
			"componentType":5126,
			"count":2,
			"type":"VEC3"
		},
		{
			"bufferView":54,
			"componentType":5126,
			"count":20,
			"type":"VEC4"
		},
		{
			"bufferView":55,
			"componentType":5126,
			"count":2,
			"type":"VEC3"
		},
		{
			"bufferView":56,
			"componentType":5126,
			"count":20,
			"type":"VEC3"
		},
		{
			"bufferView":57,
			"componentType":5126,
			"count":20,
			"type":"VEC4"
		},
		{
			"bufferView":58,
			"componentType":5126,
			"count":2,
			"type":"VEC3"
		}
	],
	"bufferViews":[
		{
			"buffer":0,
			"byteLength":6888,
			"byteOffset":0,
			"target":34962
		},
		{
			"buffer":0,
			"byteLength":6888,
			"byteOffset":6888,
			"target":34962
		},
		{
			"buffer":0,
			"byteLength":4592,
			"byteOffset":13776,
			"target":34962
		},
		{
			"buffer":0,
			"byteLength":2296,
			"byteOffset":18368,
			"target":34962
		},
		{
			"buffer":0,
			"byteLength":9184,
			"byteOffset":20664,
			"target":34962
		},
		{
			"buffer":0,
			"byteLength":6048,
			"byteOffset":29848,
			"target":34963
		},
		{
			"buffer":0,
			"byteLength":512,
			"byteOffset":35896
		},
		{
			"buffer":0,
			"byteLength":60,
			"byteOffset":36408
		},
		{
			"buffer":0,
			"byteLength":180,
			"byteOffset":36468
		},
		{
			"buffer":0,
			"byteLength":8,
			"byteOffset":36648
		},
		{
			"buffer":0,
			"byteLength":32,
			"byteOffset":36656
		},
		{
			"buffer":0,
			"byteLength":24,
			"byteOffset":36688
		},
		{
			"buffer":0,
			"byteLength":24,
			"byteOffset":36712
		},
		{
			"buffer":0,
			"byteLength":32,
			"byteOffset":36736
		},
		{
			"buffer":0,
			"byteLength":24,
			"byteOffset":36768
		},
		{
			"buffer":0,
			"byteLength":24,
			"byteOffset":36792
		},
		{
			"buffer":0,
			"byteLength":240,
			"byteOffset":36816
		},
		{
			"buffer":0,
			"byteLength":24,
			"byteOffset":37056
		},
		{
			"buffer":0,
			"byteLength":24,
			"byteOffset":37080
		},
		{
			"buffer":0,
			"byteLength":240,
			"byteOffset":37104
		},
		{
			"buffer":0,
			"byteLength":24,
			"byteOffset":37344
		},
		{
			"buffer":0,
			"byteLength":24,
			"byteOffset":37368
		},
		{
			"buffer":0,
			"byteLength":32,
			"byteOffset":37392
		},
		{
			"buffer":0,
			"byteLength":24,
			"byteOffset":37424
		},
		{
			"buffer":0,
			"byteLength":24,
			"byteOffset":37448
		},
		{
			"buffer":0,
			"byteLength":240,
			"byteOffset":37472
		},
		{
			"buffer":0,
			"byteLength":24,
			"byteOffset":37712
		},
		{
			"buffer":0,
			"byteLength":24,
			"byteOffset":37736
		},
		{
			"buffer":0,
			"byteLength":240,
			"byteOffset":37760
		},
		{
			"buffer":0,
			"byteLength":24,
			"byteOffset":38000
		},
		{
			"buffer":0,
			"byteLength":24,
			"byteOffset":38024
		},
		{
			"buffer":0,
			"byteLength":32,
			"byteOffset":38048
		},
		{
			"buffer":0,
			"byteLength":24,
			"byteOffset":38080
		},
		{
			"buffer":0,
			"byteLength":8,
			"byteOffset":38104
		},
		{
			"buffer":0,
			"byteLength":24,
			"byteOffset":38112
		},
		{
			"buffer":0,
			"byteLength":32,
			"byteOffset":38136
		},
		{
			"buffer":0,
			"byteLength":24,
			"byteOffset":38168
		},
		{
			"buffer":0,
			"byteLength":80,
			"byteOffset":38192
		},
		{
			"buffer":0,
			"byteLength":240,
			"byteOffset":38272
		},
		{
			"buffer":0,
			"byteLength":320,
			"byteOffset":38512
		},
		{
			"buffer":0,
			"byteLength":24,
			"byteOffset":38832
		},
		{
			"buffer":0,
			"byteLength":24,
			"byteOffset":38856
		},
		{
			"buffer":0,
			"byteLength":32,
			"byteOffset":38880
		},
		{
			"buffer":0,
			"byteLength":24,
			"byteOffset":38912
		},
		{
			"buffer":0,
			"byteLength":24,
			"byteOffset":38936
		},
		{
			"buffer":0,
			"byteLength":320,
			"byteOffset":38960
		},
		{
			"buffer":0,
			"byteLength":24,
			"byteOffset":39280
		},
		{
			"buffer":0,
			"byteLength":24,
			"byteOffset":39304
		},
		{
			"buffer":0,
			"byteLength":32,
			"byteOffset":39328
		},
		{
			"buffer":0,
			"byteLength":24,
			"byteOffset":39360
		},
		{
			"buffer":0,
			"byteLength":24,
			"byteOffset":39384
		},
		{
			"buffer":0,
			"byteLength":320,
			"byteOffset":39408
		},
		{
			"buffer":0,
			"byteLength":24,
			"byteOffset":39728
		},
		{
			"buffer":0,
			"byteLength":24,
			"byteOffset":39752
		},
		{
			"buffer":0,
			"byteLength":320,
			"byteOffset":39776
		},
		{
			"buffer":0,
			"byteLength":24,
			"byteOffset":40096
		},
		{
			"buffer":0,
			"byteLength":240,
			"byteOffset":40120
		},
		{
			"buffer":0,
			"byteLength":320,
			"byteOffset":40360
		},
		{
			"buffer":0,
			"byteLength":24,
			"byteOffset":40680
		}
	],
	"buffers":[
		{
			"byteLength":40704,
			"uri":"data:application/octet-stream;base64,"
		}
	]
}
